<svg width="174" height="72" viewBox="0 0 174 72" fill="none" xmlns="http://www.w3.org/2000/svg">
  <g clip-path="url(#clip0_1_2)">
    <rect width="174" height="72" fill="white" />
    <path d="M13.8 29.4667C19.1296 29.431 24.2919 31.3255 28.3333 34.8" stroke="black"
      stroke-width="1.5" stroke-linecap="round" stroke-linejoin="round" />
    <path
      d="M15 36C13.6262 37.8465 11.8877 39.3911 9.89228 40.5379C7.89685 41.6847 5.68706 42.4093 3.4 42.6667"
      stroke="black" stroke-width="1.5" stroke-linecap="round" stroke-linejoin="round" />
    <path d="M21.4 38.1333C18.753 42.8183 14.4855 46.3746 9.4 48.1333" stroke="black"
      stroke-width="1.5" stroke-linecap="round" stroke-linejoin="round" />
    <path
      d="M26.6 42.6667C25.2152 40.8314 23.4739 39.2948 21.4805 38.1492C19.4872 37.0036 17.2829 36.2726 15 36C13.2655 31.7248 13.2655 26.9419 15 22.6667"
      stroke="black" stroke-width="1.5" stroke-linecap="round" stroke-linejoin="round" />
    <path d="M7.4 25.0667C6.35712 30.3159 7.25744 35.7652 9.93333 40.4" stroke="black"
      stroke-width="1.5" stroke-linecap="round" stroke-linejoin="round" />
    <path
      d="M15 49.3333C22.3638 49.3333 28.3333 43.3638 28.3333 36C28.3333 28.6362 22.3638 22.6667 15 22.6667C7.6362 22.6667 1.66667 28.6362 1.66667 36C1.66667 43.3638 7.6362 49.3333 15 49.3333Z"
      stroke="black" stroke-width="1.5" stroke-linecap="round" stroke-linejoin="round" />
    <path
      d="M40.3438 43H38.6733L45.0227 25.5455H46.7273L53.0767 43H51.4062L45.9347 27.6165H45.8153L40.3438 43ZM41.5455 36.3097H50.2045V37.7415H41.5455V36.3097ZM56.9631 43.1278C56.6278 43.1278 56.3381 43.0085 56.0938 42.7699C55.8551 42.5256 55.7358 42.2358 55.7358 41.9006C55.7358 41.5597 55.8551 41.2699 56.0938 41.0312C56.3381 40.7926 56.6278 40.6733 56.9631 40.6733C57.304 40.6733 57.5938 40.7926 57.8324 41.0312C58.071 41.2699 58.1903 41.5597 58.1903 41.9006C58.1903 42.1222 58.1335 42.3267 58.0199 42.5142C57.9119 42.7017 57.7642 42.8523 57.5767 42.9659C57.3949 43.0739 57.1903 43.1278 56.9631 43.1278ZM76.1839 31H74.5817C74.4624 30.4034 74.2464 29.8523 73.9339 29.3466C73.6271 28.8352 73.2408 28.3892 72.7749 28.0085C72.3089 27.6278 71.7805 27.3324 71.1896 27.1222C70.5987 26.9119 69.9595 26.8068 69.272 26.8068C68.1697 26.8068 67.1641 27.0937 66.255 27.6676C65.3516 28.2415 64.6271 29.0852 64.0817 30.1989C63.5419 31.3068 63.272 32.6648 63.272 34.2727C63.272 35.892 63.5419 37.2557 64.0817 38.3636C64.6271 39.4716 65.3516 40.3125 66.255 40.8864C67.1641 41.4545 68.1697 41.7386 69.272 41.7386C69.9595 41.7386 70.5987 41.6335 71.1896 41.4233C71.7805 41.2131 72.3089 40.9205 72.7749 40.5455C73.2408 40.1648 73.6271 39.7187 73.9339 39.2074C74.2464 38.696 74.4624 38.142 74.5817 37.5455H76.1839C76.0419 38.3466 75.7749 39.0938 75.3828 39.7869C74.9964 40.4744 74.5021 41.0767 73.8999 41.5938C73.3033 42.1108 72.6158 42.5142 71.8374 42.804C71.0589 43.0937 70.2038 43.2386 69.272 43.2386C67.8061 43.2386 66.505 42.8722 65.3686 42.1392C64.2322 41.4006 63.3402 40.3608 62.6925 39.0199C62.0504 37.679 61.7294 36.0966 61.7294 34.2727C61.7294 32.4489 62.0504 30.8665 62.6925 29.5256C63.3402 28.1847 64.2322 27.1477 65.3686 26.4148C66.505 25.6761 67.8061 25.3068 69.272 25.3068C70.2038 25.3068 71.0589 25.4517 71.8374 25.7415C72.6158 26.0256 73.3033 26.429 73.8999 26.9517C74.5021 27.4688 74.9964 28.071 75.3828 28.7585C75.7749 29.446 76.0419 30.1932 76.1839 31ZM80.8224 43.1278C80.4872 43.1278 80.1974 43.0085 79.9531 42.7699C79.7145 42.5256 79.5952 42.2358 79.5952 41.9006C79.5952 41.5597 79.7145 41.2699 79.9531 41.0312C80.1974 40.7926 80.4872 40.6733 80.8224 40.6733C81.1634 40.6733 81.4531 40.7926 81.6918 41.0312C81.9304 41.2699 82.0497 41.5597 82.0497 41.9006C82.0497 42.1222 81.9929 42.3267 81.8793 42.5142C81.7713 42.7017 81.6236 42.8523 81.4361 42.9659C81.2543 43.0739 81.0497 43.1278 80.8224 43.1278ZM86.3729 25.5455H88.2138L94.5462 40.75H94.6996L101.032 25.5455H102.873V43H101.373V28.9119H101.237L95.3473 43H93.8984L88.0092 28.9119H87.8729V43H86.3729V25.5455ZM108.408 43.1278C108.073 43.1278 107.783 43.0085 107.539 42.7699C107.3 42.5256 107.181 42.2358 107.181 41.9006C107.181 41.5597 107.3 41.2699 107.539 41.0312C107.783 40.7926 108.073 40.6733 108.408 40.6733C108.749 40.6733 109.039 40.7926 109.278 41.0312C109.516 41.2699 109.636 41.5597 109.636 41.9006C109.636 42.1222 109.579 42.3267 109.465 42.5142C109.357 42.7017 109.21 42.8523 109.022 42.9659C108.84 43.0739 108.636 43.1278 108.408 43.1278ZM113.959 43V25.5455H124.084V26.9773H115.553V33.5483H123.547V34.9801H115.553V41.5682H124.254V43H113.959ZM136.553 25.5455V43H134.959V25.5455H136.553ZM142.395 34.8182V43H140.878V29.9091H142.352V31.9631H142.489C142.795 31.2926 143.273 30.7557 143.92 30.3523C144.574 29.9432 145.381 29.7386 146.341 29.7386C147.222 29.7386 147.994 29.9233 148.659 30.2926C149.33 30.6562 149.849 31.1932 150.219 31.9034C150.594 32.6136 150.781 33.4858 150.781 34.5199V43H149.264V34.6136C149.264 33.5398 148.963 32.6903 148.361 32.0653C147.764 31.4403 146.963 31.1278 145.957 31.1278C145.27 31.1278 144.659 31.2756 144.125 31.571C143.591 31.8665 143.168 32.2926 142.855 32.8494C142.548 33.4006 142.395 34.0568 142.395 34.8182ZM159.89 43.2727C158.719 43.2727 157.7 42.9801 156.83 42.3949C155.967 41.8097 155.296 41.0085 154.819 39.9915C154.342 38.9744 154.103 37.8153 154.103 36.5142C154.103 35.2017 154.344 34.0341 154.827 33.0114C155.316 31.9886 155.992 31.1875 156.856 30.608C157.719 30.0227 158.722 29.7301 159.864 29.7301C160.739 29.7301 161.532 29.9006 162.242 30.2415C162.952 30.5767 163.538 31.0511 163.998 31.6648C164.464 32.2727 164.756 32.983 164.876 33.7955H163.342C163.183 33.0568 162.799 32.4261 162.191 31.9034C161.589 31.375 160.822 31.1108 159.89 31.1108C159.055 31.1108 158.316 31.3381 157.674 31.7926C157.032 32.2415 156.529 32.8693 156.165 33.6761C155.808 34.4773 155.629 35.4062 155.629 36.4631C155.629 37.5256 155.805 38.4659 156.157 39.2841C156.509 40.0966 157.004 40.733 157.64 41.1932C158.282 41.6534 159.032 41.8835 159.89 41.8835C160.469 41.8835 160.998 41.7756 161.475 41.5597C161.958 41.3381 162.362 41.0256 162.685 40.6222C163.015 40.2187 163.237 39.7386 163.35 39.1818H164.884C164.771 39.9716 164.489 40.6761 164.04 41.2955C163.597 41.9091 163.021 42.392 162.31 42.7443C161.606 43.0966 160.799 43.2727 159.89 43.2727ZM169.346 43.1278C169.011 43.1278 168.721 43.0085 168.477 42.7699C168.238 42.5256 168.119 42.2358 168.119 41.9006C168.119 41.5597 168.238 41.2699 168.477 41.0312C168.721 40.7926 169.011 40.6733 169.346 40.6733C169.687 40.6733 169.977 40.7926 170.215 41.0312C170.454 41.2699 170.573 41.5597 170.573 41.9006C170.573 42.1222 170.516 42.3267 170.403 42.5142C170.295 42.7017 170.147 42.8523 169.96 42.9659C169.778 43.0739 169.573 43.1278 169.346 43.1278Z"
      fill="black" />
  </g>
  <defs>
    <clipPath id="clip0_1_2">
      <rect width="174" height="72" fill="white" />
    </clipPath>
  </defs>
</svg>