<svg width="174" height="72" viewBox="0 0 174 72" fill="none" xmlns="http://www.w3.org/2000/svg">
  <g clip-path="url(#clip0_1_2)">
    <rect width="174" height="72" fill="white" />
    <path d="M16.5 27.8333C23.1619 27.7888 29.6149 30.1568 34.6667 34.5" stroke="black"
      stroke-width="1.5" stroke-linecap="round" stroke-linejoin="round" />
    <path
      d="M18 36C16.2828 38.3082 14.1096 40.2389 11.6153 41.6724C9.12106 43.1059 6.35883 44.0116 3.5 44.3333"
      stroke="black" stroke-width="1.5" stroke-linecap="round" stroke-linejoin="round" />
    <path d="M26 38.6667C22.6913 44.5229 17.3568 48.9683 11 51.1667" stroke="black"
      stroke-width="1.5" stroke-linecap="round" stroke-linejoin="round" />
    <path
      d="M32.5 44.3333C30.769 42.0392 28.5923 40.1186 26.1006 38.6866C23.6089 37.2545 20.8536 36.3407 18 36C15.8319 30.656 15.8319 24.6774 18 19.3333"
      stroke="black" stroke-width="1.5" stroke-linecap="round" stroke-linejoin="round" />
    <path d="M8.5 22.3333C7.1964 28.8948 8.3218 35.7065 11.6667 41.5" stroke="black"
      stroke-width="1.5" stroke-linecap="round" stroke-linejoin="round" />
    <path
      d="M18 52.6667C27.2047 52.6667 34.6667 45.2047 34.6667 36C34.6667 26.7953 27.2047 19.3333 18 19.3333C8.79525 19.3333 1.33333 26.7953 1.33333 36C1.33333 45.2047 8.79525 52.6667 18 52.6667Z"
      stroke="black" stroke-width="1.5" stroke-linecap="round" stroke-linejoin="round" />
    <path
      d="M43.3438 43H41.6733L48.0227 25.5455H49.7273L56.0767 43H54.4062L48.9347 27.6165H48.8153L43.3438 43ZM44.5455 36.3097H53.2045V37.7415H44.5455V36.3097ZM59.9631 43.1278C59.6278 43.1278 59.3381 43.0085 59.0938 42.7699C58.8551 42.5256 58.7358 42.2358 58.7358 41.9006C58.7358 41.5597 58.8551 41.2699 59.0938 41.0312C59.3381 40.7926 59.6278 40.6733 59.9631 40.6733C60.304 40.6733 60.5938 40.7926 60.8324 41.0312C61.071 41.2699 61.1903 41.5597 61.1903 41.9006C61.1903 42.1222 61.1335 42.3267 61.0199 42.5142C60.9119 42.7017 60.7642 42.8523 60.5767 42.9659C60.3949 43.0739 60.1903 43.1278 59.9631 43.1278ZM79.1839 31H77.5817C77.4624 30.4034 77.2464 29.8523 76.9339 29.3466C76.6271 28.8352 76.2408 28.3892 75.7749 28.0085C75.3089 27.6278 74.7805 27.3324 74.1896 27.1222C73.5987 26.9119 72.9595 26.8068 72.272 26.8068C71.1697 26.8068 70.1641 27.0937 69.255 27.6676C68.3516 28.2415 67.6271 29.0852 67.0817 30.1989C66.5419 31.3068 66.272 32.6648 66.272 34.2727C66.272 35.892 66.5419 37.2557 67.0817 38.3636C67.6271 39.4716 68.3516 40.3125 69.255 40.8864C70.1641 41.4545 71.1697 41.7386 72.272 41.7386C72.9595 41.7386 73.5987 41.6335 74.1896 41.4233C74.7805 41.2131 75.3089 40.9205 75.7749 40.5455C76.2408 40.1648 76.6271 39.7187 76.9339 39.2074C77.2464 38.696 77.4624 38.142 77.5817 37.5455H79.1839C79.0419 38.3466 78.7749 39.0938 78.3828 39.7869C77.9964 40.4744 77.5021 41.0767 76.8999 41.5938C76.3033 42.1108 75.6158 42.5142 74.8374 42.804C74.0589 43.0937 73.2038 43.2386 72.272 43.2386C70.8061 43.2386 69.505 42.8722 68.3686 42.1392C67.2322 41.4006 66.3402 40.3608 65.6925 39.0199C65.0504 37.679 64.7294 36.0966 64.7294 34.2727C64.7294 32.4489 65.0504 30.8665 65.6925 29.5256C66.3402 28.1847 67.2322 27.1477 68.3686 26.4148C69.505 25.6761 70.8061 25.3068 72.272 25.3068C73.2038 25.3068 74.0589 25.4517 74.8374 25.7415C75.6158 26.0256 76.3033 26.429 76.8999 26.9517C77.5021 27.4688 77.9964 28.071 78.3828 28.7585C78.7749 29.446 79.0419 30.1932 79.1839 31ZM83.8224 43.1278C83.4872 43.1278 83.1974 43.0085 82.9531 42.7699C82.7145 42.5256 82.5952 42.2358 82.5952 41.9006C82.5952 41.5597 82.7145 41.2699 82.9531 41.0312C83.1974 40.7926 83.4872 40.6733 83.8224 40.6733C84.1634 40.6733 84.4531 40.7926 84.6918 41.0312C84.9304 41.2699 85.0497 41.5597 85.0497 41.9006C85.0497 42.1222 84.9929 42.3267 84.8793 42.5142C84.7713 42.7017 84.6236 42.8523 84.4361 42.9659C84.2543 43.0739 84.0497 43.1278 83.8224 43.1278ZM89.3729 25.5455H91.2138L97.5462 40.75H97.6996L104.032 25.5455H105.873V43H104.373V28.9119H104.237L98.3473 43H96.8984L91.0092 28.9119H90.8729V43H89.3729V25.5455ZM111.408 43.1278C111.073 43.1278 110.783 43.0085 110.539 42.7699C110.3 42.5256 110.181 42.2358 110.181 41.9006C110.181 41.5597 110.3 41.2699 110.539 41.0312C110.783 40.7926 111.073 40.6733 111.408 40.6733C111.749 40.6733 112.039 40.7926 112.278 41.0312C112.516 41.2699 112.636 41.5597 112.636 41.9006C112.636 42.1222 112.579 42.3267 112.465 42.5142C112.357 42.7017 112.21 42.8523 112.022 42.9659C111.84 43.0739 111.636 43.1278 111.408 43.1278ZM116.959 43V25.5455H127.084V26.9773H118.553V33.5483H126.547V34.9801H118.553V41.5682H127.254V43H116.959ZM139.553 25.5455V43H137.959V25.5455H139.553ZM145.395 34.8182V43H143.878V29.9091H145.352V31.9631H145.489C145.795 31.2926 146.273 30.7557 146.92 30.3523C147.574 29.9432 148.381 29.7386 149.341 29.7386C150.222 29.7386 150.994 29.9233 151.659 30.2926C152.33 30.6562 152.849 31.1932 153.219 31.9034C153.594 32.6136 153.781 33.4858 153.781 34.5199V43H152.264V34.6136C152.264 33.5398 151.963 32.6903 151.361 32.0653C150.764 31.4403 149.963 31.1278 148.957 31.1278C148.27 31.1278 147.659 31.2756 147.125 31.571C146.591 31.8665 146.168 32.2926 145.855 32.8494C145.548 33.4006 145.395 34.0568 145.395 34.8182ZM162.89 43.2727C161.719 43.2727 160.7 42.9801 159.83 42.3949C158.967 41.8097 158.296 41.0085 157.819 39.9915C157.342 38.9744 157.103 37.8153 157.103 36.5142C157.103 35.2017 157.344 34.0341 157.827 33.0114C158.316 31.9886 158.992 31.1875 159.856 30.608C160.719 30.0227 161.722 29.7301 162.864 29.7301C163.739 29.7301 164.532 29.9006 165.242 30.2415C165.952 30.5767 166.538 31.0511 166.998 31.6648C167.464 32.2727 167.756 32.983 167.876 33.7955H166.342C166.183 33.0568 165.799 32.4261 165.191 31.9034C164.589 31.375 163.822 31.1108 162.89 31.1108C162.055 31.1108 161.316 31.3381 160.674 31.7926C160.032 32.2415 159.529 32.8693 159.165 33.6761C158.808 34.4773 158.629 35.4062 158.629 36.4631C158.629 37.5256 158.805 38.4659 159.157 39.2841C159.509 40.0966 160.004 40.733 160.64 41.1932C161.282 41.6534 162.032 41.8835 162.89 41.8835C163.469 41.8835 163.998 41.7756 164.475 41.5597C164.958 41.3381 165.362 41.0256 165.685 40.6222C166.015 40.2187 166.237 39.7386 166.35 39.1818H167.884C167.771 39.9716 167.489 40.6761 167.04 41.2955C166.597 41.9091 166.021 42.392 165.31 42.7443C164.606 43.0966 163.799 43.2727 162.89 43.2727ZM172.346 43.1278C172.011 43.1278 171.721 43.0085 171.477 42.7699C171.238 42.5256 171.119 42.2358 171.119 41.9006C171.119 41.5597 171.238 41.2699 171.477 41.0312C171.721 40.7926 172.011 40.6733 172.346 40.6733C172.687 40.6733 172.977 40.7926 173.215 41.0312C173.454 41.2699 173.573 41.5597 173.573 41.9006C173.573 42.1222 173.516 42.3267 173.403 42.5142C173.295 42.7017 173.147 42.8523 172.96 42.9659C172.778 43.0739 172.573 43.1278 172.346 43.1278Z"
      fill="black" />
  </g>
  <defs>
    <clipPath id="clip0_1_2">
      <rect width="174" height="72" fill="white" />
    </clipPath>
  </defs>
</svg>